<svg width="59" height="58" viewBox="0 0 59 58" fill="none" xmlns="http://www.w3.org/2000/svg">
<path d="M9.28691 27.2914C8.83386 27.7446 8.57935 28.3592 8.57935 29C8.57935 29.6408 8.83386 30.2554 9.28691 30.7086L22.958 44.3797C23.1809 44.6105 23.4476 44.7946 23.7424 44.9212C24.0373 45.0479 24.3544 45.1146 24.6753 45.1173C24.9962 45.1201 25.3144 45.059 25.6114 44.9375C25.9084 44.816 26.1782 44.6365 26.4051 44.4096C26.632 44.1827 26.8115 43.9129 26.933 43.6159C27.0545 43.3189 27.1156 43.0006 27.1129 42.6798C27.1101 42.3589 27.0434 42.0418 26.9167 41.7469C26.7901 41.4521 26.606 41.1854 26.3752 40.9625L16.8293 31.4167L48.8332 31.4167C49.4742 31.4167 50.0889 31.162 50.5421 30.7088C50.9953 30.2556 51.2499 29.6409 51.2499 29C51.2499 28.359 50.9953 27.7444 50.5421 27.2911C50.0889 26.8379 49.4742 26.5833 48.8332 26.5833L16.8293 26.5833L26.3752 17.0375C26.8154 16.5817 27.059 15.9712 27.0535 15.3376C27.048 14.704 26.7938 14.0978 26.3457 13.6498C25.8977 13.2017 25.2915 12.9475 24.6579 12.942C24.0242 12.9365 23.4138 13.1801 22.958 13.6203L9.28691 27.2914Z" fill="white"/>
</svg>
