<svg width="81" height="81" viewBox="0 0 81 81" fill="none" xmlns="http://www.w3.org/2000/svg">
<path d="M14.3775 14.3775C10.125 18.6705 10.125 25.5353 10.125 39.285V41.715C10.125 55.4445 10.125 62.3092 14.3775 66.6225C18.6705 70.875 25.5353 70.875 39.285 70.875H41.715C55.4445 70.875 62.3092 70.875 66.6225 66.6225C70.875 62.3295 70.875 55.4647 70.875 41.715V39.285C70.875 25.5555 70.875 18.6908 66.6225 14.3775C62.3295 10.125 55.4647 10.125 41.715 10.125H39.285C25.5555 10.125 18.6908 10.125 14.3775 14.3775ZM20.3715 28.6132H27.3375C27.5603 40.1962 32.6632 45.0967 36.7133 46.1092V28.6132H43.254V38.5965C47.2433 38.1712 51.4552 33.615 52.8727 28.593H59.3932C58.8612 31.1925 57.799 33.6544 56.2729 35.825C54.7469 37.9956 52.7898 39.8283 50.5238 41.2087C53.0531 42.4672 55.2868 44.2477 57.0775 46.4328C58.8681 48.6179 60.1751 51.1579 60.912 53.8853H53.7233C52.1842 49.086 48.3368 45.36 43.254 44.8537V53.8853H42.444C28.593 53.8853 20.6955 44.4082 20.3715 28.6132Z" fill="white"/>
</svg>
